<!-- Made by dst212 -->
<svg viewbox="0 0 100 100" version="1.1" xmlns="http://www.w3.org/2000/svg" xmlns:xlink= "http://www.w3.org/1999/xlink">
	<path
		style="fill:none;stroke:currentColor;stroke-width:6;stroke-linecap:round;stroke-linejoin:miter;stroke-miterlimit:4;stroke-dasharray:none;stroke-opacity:1"
		d="M 18.68129,2.4576762 C 7.4670353,13.725999 0.73927771,25.450846 2.8288606,40.853394 c 0.3960615,2.919416 1.7784351,7.897309 3.2608749,10.632539 2.3293339,4.297826 5.9100905,9.596595 10.8261305,12.216113 11.455538,6.104095 25.768987,6.621915 38.868023,6.727083 5.515738,0.0443 13.022612,0.476898 18.521785,0"
	/>
	<path
		style="fill:none;stroke:currentColor;stroke-width:6;stroke-linecap:round;stroke-linejoin:miter;stroke-miterlimit:4;stroke-dasharray:none;stroke-opacity:1"
		d="m 67.750645,48.463888 c 5.710961,1.86902 11.338125,4.161631 16.334856,7.421664 1.661953,1.084309 12.75222,8.431039 13.391323,11.424328 0.302599,1.417265 -2.85282,6.851983 -3.326526,7.604212 -3.823414,6.071481 -9.671346,10.51333 -15.065233,15.270151 -3.880149,3.421864 -5.424876,3.934861 -9.302887,7.35899"
	/>

</svg>
